<?xml version="1.0" encoding="utf-8"?>
<!-- Generator: Adobe Illustrator 19.0.0, SVG Export Plug-In . SVG Version: 6.00 Build 0)  -->
<svg version="1.1" id="Layer_1" xmlns="http://www.w3.org/2000/svg" xmlns:xlink="http://www.w3.org/1999/xlink" x="0px" y="0px"
	 viewBox="0 0 512 512" style="enable-background:new 0 0 512 512;" xml:space="preserve">
<style type="text/css">
	.st0{display:none;fill:#0064FF;stroke:#0041FF;stroke-width:7;stroke-miterlimit:10;}
	.st1{fill:#0064FF;}
	.st2{fill:none;stroke:#0041FF;stroke-width:22;stroke-miterlimit:10;}
	.st3{fill:#DDDDDD;}
	.st4{fill:none;stroke:#DDDDDD;stroke-width:24;stroke-miterlimit:10;}
	.st5{fill:none;stroke:#DDDDDD;stroke-width:36;stroke-miterlimit:10;}
</style>
<path id="XMLID_1_" class="st0" d="M427.4,358.2H55.5c-9.5,0-17.2-7.8-17.2-17.2V81.8c0-9.5,7.8-17.2,17.2-17.2h371.9
	c9.5,0,17.2,7.8,17.2,17.2V341C444.7,350.5,436.9,358.2,427.4,358.2z"/>
<g id="XMLID_2_">
	<path id="XMLID_18_" class="st1" d="M438.5,394.7c-1.4,8.1-9.2,14.8-17.5,14.8H39.6c-8.3,0-13.9-6.7-12.5-14.8l46.4-277.4
		c1.4-8.1,9.2-14.8,17.5-14.8h381.4c8.3,0,13.9,6.7,12.5,14.8L438.5,394.7z"/>
	<path id="XMLID_17_" class="st2" d="M438.5,394.7c-1.4,8.1-9.2,14.8-17.5,14.8H39.6c-8.3,0-13.9-6.7-12.5-14.8l46.4-277.4
		c1.4-8.1,9.2-14.8,17.5-14.8h381.4c8.3,0,13.9,6.7,12.5,14.8L438.5,394.7z"/>
</g>
<rect id="XMLID_3_" x="270.4" y="353.4" class="st3" width="128.6" height="31.4"/>
<circle id="XMLID_4_" class="st4" cx="226.1" cy="212.9" r="72.4"/>
<path id="XMLID_6_" class="st4" d="M226.1,212.9"/>
<line id="XMLID_5_" class="st5" x1="78.2" y1="374.8" x2="177.3" y2="266.4"/>
</svg>
